<?xml version="1.0" standalone="no"?>
<!DOCTYPE svg PUBLIC "-//W3C//DTD SVG 20010904//EN"
 "http://www.w3.org/TR/2001/REC-SVG-20010904/DTD/svg10.dtd">
<svg version="1.0" xmlns="http://www.w3.org/2000/svg"
 width="1081.000000pt" height="123.000000pt" viewBox="0 0 1081.000000 123.000000"
 preserveAspectRatio="xMidYMid meet">

<g transform="translate(0.000000,123.000000) scale(0.100000,-0.100000)"
fill="#000000" stroke="none">
<path d="M1040 625 l0 -595 85 0 85 0 0 595 0 595 -85 0 -85 0 0 -595z"/>
<path d="M3400 625 l0 -595 85 0 85 0 0 158 0 158 33 32 c18 18 35 32 38 32 3
0 73 -85 155 -190 l149 -190 113 0 114 0 -28 32 c-15 18 -106 129 -202 246
-145 177 -172 215 -162 227 7 9 94 88 193 178 l180 162 -112 3 -113 3 -179
-166 -179 -167 0 336 0 336 -85 0 -85 0 0 -595z"/>
<path d="M5160 625 l0 -595 84 0 84 0 5 263 c4 296 9 319 72 382 83 83 218 85
292 4 53 -58 58 -84 61 -376 l3 -273 85 0 85 0 -3 312 c-3 313 -3 313 -29 368
-37 80 -72 115 -147 152 -61 30 -75 33 -157 33 -105 -1 -166 -23 -227 -83
l-38 -36 0 222 0 222 -85 0 -85 0 0 -595z"/>
<path d="M7204 1186 c-84 -84 -10 -214 109 -192 50 9 79 46 85 105 4 47 2 53
-31 86 -30 30 -42 35 -82 35 -40 0 -52 -5 -81 -34z"/>
<path d="M0 609 l0 -580 308 3 c290 3 310 4 354 25 111 51 187 160 196 282 9
133 -45 240 -152 297 l-59 32 29 15 c104 54 151 197 105 318 -15 40 -37 71
-75 107 -82 77 -107 82 -433 82 l-273 0 0 -581z m539 396 c53 -31 75 -67 75
-125 0 -56 -20 -91 -74 -127 -31 -22 -43 -23 -196 -23 l-164 0 0 151 0 151
163 -4 c140 -3 167 -6 196 -23z m-35 -445 c204 -33 228 -297 32 -355 -34 -10
-97 -15 -203 -15 l-153 0 0 190 0 190 133 0 c72 0 159 -4 191 -10z"/>
<path d="M1713 885 c-74 -21 -128 -50 -180 -98 -86 -79 -126 -157 -142 -272
-27 -195 67 -378 237 -462 76 -38 76 -38 201 -38 159 0 212 19 306 107 106 99
153 220 142 368 -3 41 -13 95 -23 120 -46 119 -148 222 -260 261 -77 28 -210
34 -281 14z m233 -173 c49 -25 118 -98 140 -149 24 -56 23 -167 -3 -224 -29
-65 -76 -114 -139 -145 -46 -22 -64 -26 -121 -22 -78 5 -127 25 -177 74 -62
61 -81 107 -81 204 0 71 4 93 25 134 31 61 100 122 159 141 59 19 146 13 197
-13z"/>
<path d="M2744 886 c-86 -20 -154 -57 -215 -118 -169 -168 -167 -474 4 -635
62 -58 113 -87 194 -108 168 -44 346 6 459 128 30 32 53 64 51 71 -2 6 -34 29
-71 50 -65 38 -69 39 -79 20 -16 -29 -66 -73 -111 -97 -33 -17 -58 -22 -126
-22 -75 0 -90 3 -133 28 -56 33 -111 104 -128 165 -18 66 -7 172 25 225 35 61
100 114 160 132 108 32 194 9 277 -74 l58 -58 70 39 71 39 -17 27 c-26 43 -85
102 -127 129 -94 61 -246 85 -362 59z"/>
<path d="M4525 890 c-178 -37 -305 -158 -345 -329 -17 -74 -8 -211 19 -281 61
-158 198 -256 376 -267 168 -11 325 55 405 172 l30 43 -71 42 -70 42 -38 -44
c-72 -81 -193 -117 -297 -88 -58 16 -135 85 -165 147 -35 73 -33 179 4 255 50
101 131 151 247 152 65 1 82 -3 129 -29 30 -16 70 -49 89 -72 l35 -42 47 27
c26 15 57 34 70 43 l23 15 -31 46 c-91 132 -285 203 -457 168z"/>
<path d="M6415 887 c-172 -44 -291 -179 -315 -358 -30 -214 66 -402 247 -487
52 -24 69 -27 163 -27 93 0 112 3 161 26 31 15 75 43 98 64 l41 37 0 -56 0
-56 80 0 80 0 0 425 0 425 -80 0 -80 0 0 -55 c0 -30 -4 -55 -8 -55 -4 0 -23
15 -41 34 -73 76 -229 113 -346 83z m256 -183 c60 -33 112 -97 130 -162 15
-55 7 -178 -15 -219 -64 -125 -201 -182 -340 -141 -57 17 -138 99 -159 162
-20 59 -21 156 -3 209 59 163 236 232 387 151z"/>
<path d="M7935 887 c-61 -20 -86 -36 -132 -80 l-43 -41 0 57 0 58 -82 -3 -83
-3 -3 -422 -2 -423 90 0 90 0 0 268 0 268 26 53 c63 126 232 159 328 65 59
-57 66 -100 66 -396 l0 -258 91 0 91 0 -4 303 c-4 286 -6 305 -28 361 -47 123
-151 195 -289 202 -47 2 -91 -1 -116 -9z"/>
<path d="M7200 455 l0 -425 85 0 85 0 0 425 0 425 -85 0 -85 0 0 -425z"/>
</g>
</svg>
